# xmcd
#
# Track frame offsets: 
#        150
#        18842
#        34910
#        55675
#        68572
#        80947
#        100920
#        116277
#        127965
#
# Disc length: 1857 seconds
#
# Revision: 0
# Processed by: cddbd v1.5.2PL0 Copyright (c) Steve Scherf et al.
# Submitted via: ExactAudioCopy v1.0b3
#
DISCID=6b073f09
DTITLE=Ben Harper - Both Sides of the Gun [CD1]
DYEAR=2006
DGENRE=Alt. Folk Blues-Rock
TTITLE0=Morning Yearning
TTITLE1=Waiting for You
TTITLE2=Picture in a Frame
TTITLE3=Never Leave Lonely Alone
TTITLE4=Sweet Nothing Serenade
TTITLE5=Reason To Mourn
TTITLE6=More Than Sorry
TTITLE7=Cryin' Won't Help You Now
TTITLE8=Happy Everafter in Your Eyes
EXTD=
EXTT0=
EXTT1=
EXTT2=
EXTT3=
EXTT4=
EXTT5=
EXTT6=
EXTT7=
EXTT8=
PLAYORDER=
